PathFileType	4	(X/Y/Z)	..\data\2015007\dynamic\2015007_C5_03.trc
DataRate	CameraRate	NumFrames	NumMarkers	Units	OrigDataRate	OrigDataStartFrame	OrigNumFrames
100.000000	100.000000	4	52	mm	100.000000	17	139
Frame#	Time	L_IAS			L_IPS			R_IPS			R_IAS			L_FTC			L_FLE			L_FME			L_FAX			L_TTC			L_FAL			L_TAM			L_FCC			L_FM1			L_FM2			L_FM5			R_FTC			R_FLE			R_FME			R_FAX			R_TTC			R_FAL			R_TAM			R_FCC			R_FM1			R_FM2			R_FM5			CV7			TV10			SXS			SJN			L_SIA			L_SRS			L_SAA			L_SAE			L_HLE			L_HME			L_UOA			L_RSP			L_UHE			L_HM2			L_HM5			R_SIA			R_SRS			R_SAA			R_SAE			R_HLE			R_HME			R_UOA			R_RSP			R_UHE			R_HM2			R_HM5			
		X1	Y1	Z1	X2	Y2	Z2	X3	Y3	Z3	X4	Y4	Z4	X5	Y5	Z5	X6	Y6	Z6	X7	Y7	Z7	X8	Y8	Z8	X9	Y9	Z9	X10	Y10	Z10	X11	Y11	Z11	X12	Y12	Z12	X13	Y13	Z13	X14	Y14	Z14	X15	Y15	Z15	X16	Y16	Z16	X17	Y17	Z17	X18	Y18	Z18	X19	Y19	Z19	X20	Y20	Z20	X21	Y21	Z21	X22	Y22	Z22	X23	Y23	Z23	X24	Y24	Z24	X25	Y25	Z25	X26	Y26	Z26	X27	Y27	Z27	X28	Y28	Z28	X29	Y29	Z29	X30	Y30	Z30	X31	Y31	Z31	X32	Y32	Z32	X33	Y33	Z33	X34	Y34	Z34	X35	Y35	Z35	X36	Y36	Z36	X37	Y37	Z37	X38	Y38	Z38	X39	Y39	Z39	X40	Y40	Z40	X41	Y41	Z41	X42	Y42	Z42	X43	Y43	Z43	X44	Y44	Z44	X45	Y45	Z45	X46	Y46	Z46	X47	Y47	Z47	X48	Y48	Z48	X49	Y49	Z49	X50	Y50	Z50	X51	Y51	Z51	X52	Y52	Z52	

18	0.17	53.53470993041994	880.420104980469	-357.8692626953126	-159.0953674316407	897.425720214844	-278.2064819335938	-148.4556274414063	910.0715942382815	-171.5697479248047	69.8991165161133	904.795349121094	-112.0255126953125	-32.44651412963868	772.0378417968752	-412.300506591797	-16.89741897583008	409.6848754882814	-373.3352966308594	9.764425277709963	382.8341369628907	-256.2694396972657	-60.70781326293947	376.0905456542969	-379.0028381347657	-19.93039512634278	329.3363647460938	-338.2185058593751	-314.0709533691407	186.1839752197266	-326.4614562988282	-284.0373229980469	160.3534088134766	-253.4423065185547	-363.4020080566407	188.8801879882813	-260.9355468750001	-293.1329040527344	40.06053924560548	-278.7143554687501	-291.4738769531251	48.28083801269533	-324.7719421386719	-336.2034912109376	84.24987792968751	-356.4873657226563	-5.577109813690186	804.5083007812502	-40.38725662231446	128.8090515136719	447.5029602050782	-110.6467819213867	114.5391159057617	432.8878479003907	-235.9479675292969	124.4029235839844	391.9872131347657	-105.1739044189453	167.6649475097657	386.6097106933595	-156.3426971435547	100.8424224853516	65.14113616943361	-134.856185913086	121.4344940185547	77.44380187988283	-217.4557647705079	52.70681381225587	17.88445854187012	-183.5316314697266	232.9576721191407	19.5234432220459	-206.592514038086	230.0853576660157	30.93596649169923	-162.26318359375	180.0681610107422	11.75931358337403	-109.2380447387696	-43.97887039184571	1394.936889648438	-211.7413177490235	-149.4675598144532	1160.35302734375	-243.7307739257813	126.3826141357422	1058.1513671875	-228.3613433837891	66.80139160156251	1310.613525390625	-219.6633453369141	-142.0634307861328	1210.709716796875	-327.2042236328126	-96.78885650634768	1337.075805664063	-327.4350585937501	-49.44592285156251	1342.091796875	-386.4681091308595	0.3927716910839082	1350.912963867188	-396.3573303222657	-35.98688125610352	1047.076782226563	-492.5969238281251	-66.05178070068361	1033.182983398438	-420.0731506347657	-67.49975585937501	1018.029846191406	-469.7657165527345	82.81234741210939	836.356384277344	-475.6500854492189	14.88677883148194	821.0859985351565	-513.5335693359376	118.8612060546875	783.9104614257815	-493.2216186523439	28.58155632019044	760.5272216796876	-518.2515258789064	-151.8134918212891	1196.614135742188	-159.981185913086	-106.0933914184571	1318.255859375	-147.1710662841797	-57.80685424804689	1318.6376953125	-72.89138031005861	-10.83453750610352	1320.504272460938	-54.74620819091798	-41.31341171264649	1001.510498046875	17.9161434173584	-71.23541259765626	987.1304931640627	-47.53250122070313	-66.3969192504883	972.2015380859377	-2.183618545532227	38.47831726074219	783.9331665039065	25.14580535888673	-11.23465251922608	787.6692504882815	62.65037536621095	61.31039810180665	705.6004638671876	39.29837036132813	-12.59025382995606	722.3510742187501	79.03691864013673	
19	0.18	69.51937866210939	883.013854980469	-356.0689392089844	-143.9908447265625	900.1845703125002	-277.7182922363282	-133.6925201416016	913.1987915039065	-171.0542755126953	84.37922668457033	907.5689086914065	-110.0269851684571	-14.6916790008545	774.5919189453127	-411.2917785644532	12.14347076416016	413.1160583496095	-372.9463195800782	40.79705429077149	386.0826110839845	-256.0378112792969	-30.78359985351563	379.6482849121094	-378.4326171875001	10.80861282348633	332.9399719238282	-338.0534667968751	-282.5407714843751	188.3209533691407	-326.0877685546876	-252.2344818115235	162.4167022705078	-253.2105102539063	-332.1774597167969	189.454818725586	-260.6152954101563	-258.9206848144532	42.49692535400391	-280.5085144042969	-257.5532836914063	51.16194534301759	-326.1751403808594	-303.0155944824219	86.93152618408205	-357.1284179687501	7.568259716033937	807.1174926757815	-39.30488967895509	134.1162109375	447.0952148437501	-109.7368774414063	119.7602615356446	432.8681640625001	-235.0618591308594	128.4817199707032	391.6141357421876	-104.4033432006836	172.0887451171875	385.7733459472657	-155.228759765625	101.0407638549805	65.35803985595705	-134.9643249511719	121.7376937866211	77.8327102661133	-217.4789581298829	53.04882812500001	18.00036811828614	-183.637435913086	233.1602172851563	20.06608963012696	-206.4037017822266	230.2425384521485	31.67350769042969	-161.8958129882813	180.2161102294922	12.4032154083252	-108.8043441772461	-28.31467437744141	1397.928100585938	-211.7167053222657	-134.166732788086	1163.39599609375	-243.2602996826172	141.593734741211	1060.776000976563	-228.0250701904297	82.3016815185547	1313.431884765625	-219.7310333251954	-126.8218460083008	1213.640380859375	-326.6676025390626	-81.43482971191408	1339.941528320313	-327.1520690917969	-34.44471740722657	1344.845581054688	-386.3447570800782	15.51108932495118	1353.491821289063	-396.3740844726564	-23.83563041687012	1049.756225585938	-491.6618041992189	-53.98991775512697	1036.631713867188	-419.063446044922	-55.78915405273439	1021.595764160156	-468.669158935547	89.4648895263672	835.6326293945315	-474.4920959472657	21.51720619201661	822.9808349609377	-513.4812011718751	123.5846633911133	781.7818603515627	-491.6669006347657	32.91756820678712	762.0355224609376	-518.1000976562501	-136.4006805419922	1199.819213867188	-159.4735107421875	-90.51409149169923	1321.439575195313	-146.9118957519532	-42.03752517700196	1321.891845703125	-72.69061279296876	5.026986122131349	1323.720947265625	-54.68630218505861	-22.15633964538575	1004.025268554688	18.29915618896485	-52.84923934936525	989.6006469726565	-47.00627136230469	-47.23200607299805	974.2735595703127	-1.600439667701722	62.2033042907715	788.3156738281252	24.02930259704591	12.55802249908448	790.7493286132815	61.73014068603517	87.32095336914064	710.7086181640626	38.17356872558594	13.04526329040528	725.6499023437501	78.12947082519533	
20	0.19	85.21410369873048	886.171325683594	-354.5673522949219	-129.0223541259766	903.2962036132815	-277.0424804687501	-118.9932556152344	916.441345214844	-170.4866180419922	98.75504302978518	910.2670898437502	-108.1453399658203	2.529874086380005	777.7407836914065	-410.3399047851564	41.06439208984376	417.2297668457032	-372.3671569824219	71.00522613525392	390.3279113769532	-255.4451446533204	-0.9306836724281313	383.6228942871094	-377.6155395507813	41.64862442016602	337.1906433105469	-337.5163269042969	-249.7389068603516	188.8586120605469	-325.9218444824219	-219.2638397216797	163.3372344970703	-253.052230834961	-299.9648437500001	187.8476257324219	-260.7073669433594	-221.6866302490235	44.2140007019043	-282.1793823242188	-220.6443634033204	53.38700103759767	-327.5234680175782	-267.1192626953126	87.97815704345705	-357.8793640136719	20.34882354736328	809.540710449219	-38.46323013305665	138.425537109375	446.6503295898439	-108.8381118774414	124.1285934448242	432.7175292968751	-234.2437591552735	131.5608673095703	391.2026977539064	-103.6425170898438	175.6411437988282	384.9645996093751	-154.0657806396485	101.0527801513672	65.53446197509767	-135.0579223632813	121.955192565918	78.24758911132814	-217.4721069335938	53.33090591430665	18.04855918884278	-183.8063201904297	233.2832183837891	20.72322273254395	-206.1530761718751	230.2849273681641	32.44756698608399	-161.5361328125	180.3240051269532	12.96343421936036	-108.4369277954102	-12.73229217529297	1401.041381835938	-211.7835388183594	-118.9128036499024	1166.548583984375	-242.6211547851563	156.2566070556641	1063.729248046875	-228.0333099365235	97.7046813964844	1316.390625	-219.9152526855469	-111.7795791625977	1216.635131835938	-325.9994812011719	-66.24358367919923	1342.854736328125	-326.8518066406251	-19.69992065429688	1347.6162109375	-386.2418518066407	30.32726860046387	1356.153198242188	-396.4942016601564	-11.99457263946533	1052.576171875	-490.772430419922	-42.17716598510743	1040.258422851563	-418.0997009277345	-44.31697845458985	1025.33935546875	-467.625213623047	95.74350738525392	835.2369384765627	-473.3253173828126	27.8810157775879	825.1671142578127	-513.4608154296876	127.8201904296875	779.9954833984377	-489.9436950683595	36.97549057006837	763.8800659179689	-517.9291992187501	-121.1135787963867	1203.219604492188	-158.8561553955078	-75.01731872558595	1324.825561523438	-146.6852569580078	-26.29803085327149	1325.37890625	-72.5582733154297	20.85359001159668	1327.171508789063	-54.72803115844728	-3.108145713806153	1006.773742675781	18.6315975189209	-34.6072006225586	992.3612060546877	-46.55707550048829	-28.21005249023438	976.5684814453127	-1.064581513404846	86.02728271484376	793.1607055664065	22.70266723632813	36.47864532470704	794.2078247070315	60.57797241210939	113.5820846557617	716.4305419921876	36.84447860717774	38.94432449340821	729.3450317382814	76.95820617675783	
21	0.2	100.6373748779297	889.827575683594	-353.3678894042969	-114.1416015625	906.668395996094	-276.2267150878907	-104.323974609375	919.7484130859377	-169.8857574462891	113.0632781982422	912.8751220703127	-106.4195709228516	19.24112319946289	781.3511352539065	-409.454559326172	69.79053497314455	421.9121093750001	-371.6159057617188	100.3496017456055	395.409881591797	-254.5270233154297	28.76944541931153	387.886444091797	-376.5975646972657	72.47304534912111	341.9775695800782	-336.6632385253907	-215.7864379882813	187.780990600586	-326.0086059570313	-185.2184753417969	163.0460205078125	-253.0289459228516	-266.7986755371094	184.1426849365235	-261.2214965820313	-181.8412017822266	45.10125732421876	-283.7191772460938	-181.145263671875	54.822322845459	-328.8038330078126	-228.8335723876954	87.37364196777345	-358.7641906738282	32.85205841064454	811.7720336914065	-37.86242675781251	141.9268798828125	446.2182617187501	-107.9740524291992	127.7941207885742	432.4854431152345	-233.5181579589844	133.8501586914063	390.7958984375001	-102.9097213745117	178.4815063476563	384.2049865722657	-152.9054870605469	100.9257202148438	65.66020965576173	-135.1438446044922	122.1036834716797	78.6478958129883	-217.4591827392579	53.52267456054689	18.05115127563477	-184.0191497802735	233.3349609375001	21.36004447937012	-205.8827819824219	230.2434082031251	33.14381790161134	-161.215805053711	180.3824920654297	13.37848091125489	-108.149284362793	2.792512178421021	1404.197998046875	-211.9113769531251	-103.6731567382813	1169.737060546875	-241.7991943359376	170.4011535644532	1066.998291015625	-228.347640991211	113.036361694336	1319.419677734375	-220.1863708496094	-96.90815734863284	1219.624755859375	-325.1906738281251	-51.18490982055665	1345.746704101563	-326.5113830566407	-5.16699504852295	1350.342041015625	-386.1276855468751	44.87773513793946	1358.841430664063	-396.6794433593751	-0.4393535852432252	1055.494140625	-489.9196166992189	-30.5786247253418	1044.011474609375	-417.1690673828126	-33.06008911132813	1029.201904296875	-466.6296997070314	101.7103118896485	835.1601562500002	-472.1913452148439	34.02803039550782	827.5983886718752	-513.4594726562501	131.6495513916016	778.5538330078127	-488.1113891601564	40.82897567749024	766.0172729492189	-517.7391967773439	-105.9181060791016	1206.724853515625	-158.1146087646485	-59.57304763793947	1328.322021484375	-146.4694366455078	-10.56785869598389	1329.0087890625	-72.47558593750001	36.65439605712891	1330.7763671875	-54.8480911254883	15.79945659637452	1009.686828613281	18.94040107727051	-16.50094795227051	995.3347167968752	-46.16394424438477	-9.344968795776369	979.014099121094	-0.5558810830116273	109.895248413086	798.4060058593752	21.17152786254883	60.48950576782228	797.9841308593752	59.2061004638672	140.0020751953125	722.6929931640626	35.27494430541993	65.04346466064455	733.3705444335939	75.50610351562501	
